<svg width="100%" height="100%" viewBox="0 0 133 133" fill="none" xmlns="http://www.w3.org/2000/svg">
<path fill-rule="evenodd" clip-rule="evenodd" d="M22.2609 98.8689C23.1237 99.735 23.7848 100.781 24.1972 101.932C24.6096 103.083 24.763 104.31 24.6466 105.527C24.0624 111.16 22.9548 116.725 21.3382 122.152C32.9341 119.467 40.0164 116.358 43.2333 114.729C45.0579 113.805 47.1592 113.586 49.1352 114.114C54.7996 115.624 60.6377 116.384 66.5 116.375C99.7168 116.375 124.688 93.0418 124.688 66.5C124.688 39.9665 99.7168 16.625 66.5 16.625C33.2832 16.625 8.3125 39.9665 8.3125 66.5C8.3125 78.7028 13.4413 90.0244 22.2609 98.8689ZM18.1628 131.329C16.1933 131.72 14.2174 132.077 12.236 132.402C10.5735 132.668 9.31 130.938 9.96669 129.392C10.7048 127.652 11.3813 125.886 11.9949 124.097L12.0199 124.014C14.0814 118.029 15.7605 111.146 16.3756 104.738C6.17619 94.5131 0 81.13 0 66.5C0 34.3639 29.7754 8.3125 66.5 8.3125C103.225 8.3125 133 34.3639 133 66.5C133 98.6361 103.225 124.688 66.5 124.688C59.9136 124.696 53.3545 123.841 46.9906 122.144C42.6681 124.33 33.3664 128.312 18.1628 131.329Z" fill="white"/>
<path d="M62.0778 63.7319C62.0778 71.3794 55.6273 77.5806 47.6639 77.5806C39.7005 77.5806 33.25 71.3794 33.25 63.7319C33.25 56.0844 39.7005 49.875 47.6639 49.875C55.6273 49.875 62.0778 56.0761 62.0778 63.7319Z" fill="white"/>
<path fill-rule="evenodd" clip-rule="evenodd" d="M51.18 57.6555C51.0431 58.1267 50.8123 58.5654 50.5016 58.9452C50.1908 59.325 49.8065 59.638 49.3717 59.8655C48.9369 60.093 48.4606 60.2302 47.9714 60.269C47.4822 60.3078 46.9902 60.2472 46.525 60.0911C46.0834 59.9598 45.6727 59.741 45.3174 59.4478C44.9621 59.1545 44.6694 58.7926 44.4569 58.3839C44.2444 57.9751 44.1163 57.5277 44.0803 57.0684C44.0443 56.6091 44.1011 56.1473 44.2474 55.7104C44.9124 53.7985 46.1593 52.0529 48.2125 51.1717C49.1376 50.7995 50.1284 50.618 51.1254 50.638C52.1224 50.658 53.1051 50.8791 54.0146 51.2881C57.2315 52.6181 59.9996 55.8184 61.687 59.5757C65.2448 67.4559 64.9538 79.3345 53.8567 90.3818C53.1793 91.042 52.2753 91.4183 51.3295 91.4338C50.3838 91.4492 49.4679 91.1026 48.7694 90.4649C48.4288 90.1564 48.155 89.7815 47.9648 89.3631C47.7746 88.9448 47.672 88.492 47.6635 88.0325C47.6549 87.573 47.7405 87.1167 47.915 86.6916C48.0894 86.2664 48.3491 85.8815 48.678 85.5606C57.7635 76.5249 57.4726 67.6222 55.0786 62.3354C53.8151 59.5424 52.136 58.0628 51.1717 57.6555H51.18ZM50.8891 57.5557H50.8808H50.8891Z" fill="white"/>
<path d="M98.1125 63.7319C98.1125 71.3794 91.662 77.5806 83.6986 77.5806C75.7435 77.5806 69.2847 71.3794 69.2847 63.7319C69.2847 56.0844 75.7435 49.875 83.6986 49.875C91.662 49.875 98.1125 56.0761 98.1125 63.7319Z" fill="white"/>
<path fill-rule="evenodd" clip-rule="evenodd" d="M87.2148 57.6555C87.0778 58.1267 86.847 58.5654 86.5363 58.9452C86.2255 59.325 85.8412 59.638 85.4064 59.8655C84.9716 60.093 84.4953 60.2302 84.0061 60.269C83.5169 60.3078 83.025 60.2472 82.5598 60.0911C82.1181 59.9598 81.7074 59.741 81.3521 59.4478C80.9968 59.1545 80.7042 58.7926 80.4917 58.3839C80.2791 57.9751 80.151 57.5277 80.115 57.0684C80.0791 56.6091 80.1359 56.1473 80.2821 55.7104C80.9471 53.7985 82.194 52.0529 84.2472 51.1717C85.1723 50.7995 86.1631 50.618 87.1601 50.638C88.1571 50.658 89.1398 50.8791 90.0493 51.2881C93.2663 52.6181 96.0343 55.8184 97.7301 59.5757C101.288 67.4559 100.989 79.3345 89.8997 90.3818C89.2219 91.0444 88.3162 91.4222 87.3685 91.4377C86.4208 91.4532 85.5031 91.1051 84.8041 90.4649C84.4635 90.1564 84.1897 89.7815 83.9995 89.3631C83.8093 88.9448 83.7068 88.492 83.6982 88.0325C83.6896 87.573 83.7752 87.1167 83.9497 86.6916C84.1242 86.2664 84.3838 85.8815 84.7127 85.5606C93.7983 76.5249 93.5073 67.6222 91.1133 62.3354C89.8498 59.5424 88.1707 58.0628 87.2148 57.6555ZM86.9321 57.5557H86.9155H86.9321Z" fill="white"/>
</svg>
