<svg width="100%" height="100%" viewBox="0 0 11 20" fill="none" xmlns="http://www.w3.org/2000/svg">
<path d="M10.62 0.99C10.5039 0.873592 10.366 0.781235 10.2141 0.718219C10.0622 0.655202 9.89942 0.622766 9.735 0.622766C9.57058 0.622766 9.40778 0.655202 9.25592 0.718219C9.10406 0.781235 8.96612 0.873592 8.85 0.99L0.540003 9.3C0.447299 9.39251 0.373752 9.5024 0.32357 9.62338C0.273389 9.74435 0.247559 9.87403 0.247559 10.005C0.247559 10.136 0.273389 10.2657 0.32357 10.3866C0.373752 10.5076 0.447299 10.6175 0.540003 10.71L8.85 19.02C9.34 19.51 10.13 19.51 10.62 19.02C11.11 18.53 11.11 17.74 10.62 17.25L3.38 10L10.63 2.75C11.11 2.27 11.11 1.47 10.62 0.99Z" fill="white"/>
</svg>
