<svg width="100%" height="100%" viewBox="0 0 24 24" fill="none" xmlns="http://www.w3.org/2000/svg">
<path d="M21.947 9.179C21.8842 8.99387 21.7685 8.83119 21.6142 8.71106C21.46 8.59093 21.2739 8.5186 21.079 8.503L15.378 8.05L12.911 2.589C12.8325 2.41311 12.7047 2.26372 12.5431 2.15886C12.3815 2.05399 12.193 1.99814 12.0004 1.99803C11.8077 1.99793 11.6192 2.05357 11.4575 2.15826C11.2957 2.26295 11.1678 2.4122 11.089 2.588L8.62203 8.05L2.92103 8.503C2.72948 8.51817 2.54636 8.58821 2.39358 8.70473C2.2408 8.82125 2.12482 8.97932 2.05952 9.16003C1.99422 9.34074 1.98236 9.53643 2.02537 9.7237C2.06838 9.91097 2.16443 10.0819 2.30203 10.216L6.51503 14.323L5.02503 20.775C4.97978 20.9703 4.99428 21.1747 5.06665 21.3616C5.13901 21.5486 5.26589 21.7095 5.43083 21.8234C5.59577 21.9374 5.79115 21.9991 5.99161 22.0007C6.19208 22.0022 6.38837 21.9434 6.55503 21.832L12 18.202L17.445 21.832C17.6154 21.9451 17.8162 22.0033 18.0207 21.9988C18.2251 21.9944 18.4232 21.9274 18.5884 21.8069C18.7536 21.6865 18.878 21.5183 18.9448 21.3251C19.0116 21.1318 19.0176 20.9228 18.962 20.726L17.133 14.326L21.669 10.244C21.966 9.976 22.075 9.558 21.947 9.179Z" fill="white"/>
</svg>
