<svg width="100%" height="100%" viewBox="0 0 11 19" fill="none" xmlns="http://www.w3.org/2000/svg">
<path d="M0.368766 0.367234C0.48488 0.250826 0.622819 0.158469 0.774682 0.095453C0.926545 0.0324369 1.08935 0 1.25377 0C1.41819 0 1.58099 0.0324369 1.73285 0.095453C1.88471 0.158469 2.02265 0.250826 2.13877 0.367234L10.4488 8.67723C10.5415 8.76975 10.615 8.87964 10.6652 9.00061C10.7154 9.12158 10.7412 9.25127 10.7412 9.38223C10.7412 9.5132 10.7154 9.64289 10.6652 9.76386C10.615 9.88483 10.5415 9.99472 10.4488 10.0872L2.13877 18.3972C1.64877 18.8872 0.858766 18.8872 0.368766 18.3972C-0.121234 17.9072 -0.121234 17.1172 0.368766 16.6272L7.60877 9.37723L0.358768 2.12723C-0.121232 1.64723 -0.121234 0.847234 0.368766 0.367234Z" fill="white"/>
</svg>
