<svg width="100%" height="100%" viewBox="0 0 24 24" fill="none" xmlns="http://www.w3.org/2000/svg">
<path d="M23.25 8.6295H14.6558L12 0.75L9.345 8.6295H0.75L7.70288 13.5L5.04712 21.3787L12 16.5086L18.9529 21.3787L16.2971 13.5L23.25 8.6295Z" fill="white"/>
<path d="M17.3378 7.629L18.81 3.32138L14.8954 6.0255L15.4433 7.629H17.3378Z" fill="white"/>
<path d="M10.467 18.7631L12 23.25L13.5338 18.7631L12 17.7041L10.467 18.7631Z" fill="white"/>
<path d="M19.0051 12.8651L17.5707 13.8559L18.1797 15.6379H23.0187L19.0051 12.8651Z" fill="white"/>
<path d="M9.10382 6.0255L5.18994 3.32138L6.66219 7.629H8.55669L9.10382 6.0255Z" fill="white"/>
<path d="M4.99495 12.8651L0.981323 15.6379H5.81995L6.42932 13.8559L4.99495 12.8651Z" fill="white"/>
</svg>
